<svg xmlns="http://www.w3.org/2000/svg" width="66" height="62" viewBox="0 0 66 62">
  <g id="Group_663" data-name="Group 663" transform="translate(-434 -931)">
    <path id="Path_636" data-name="Path 636" d="M0,0H66V62H0Z" transform="translate(434 931)" fill="none"/>
    <g id="Group_662" data-name="Group 662" transform="translate(-1)">
      <circle id="Ellipse_121" data-name="Ellipse 121" cx="22.5" cy="22.5" r="22.5" transform="translate(445 934)" fill="#0ab3c5"/>
      <g id="Group_657" data-name="Group 657" transform="translate(341.131 938.99)">
        <path id="Path_623" data-name="Path 623" d="M200.82,408.68a8.05,8.05,0,0,1,1-2.67,11.481,11.481,0,0,1,3.76-3.48,30.521,30.521,0,0,1,9.9-3.68c1.12-.23,2.25-.42,3.44-.65-.79-1-1.56-2-2.32-3a27.618,27.618,0,0,1-3.25-4.69,14.4,14.4,0,0,1-1.32-9,14.56,14.56,0,0,1,10.23-11.84,14.92,14.92,0,0,1,19.35,15.2,15.09,15.09,0,0,1-3.43,8.6c-2,2.56-4,5.16-6.05,7.75-.09.11-.27.22-.22.37s.26.1.41.13a22.071,22.071,0,0,1,7.24,2.09,6.51,6.51,0,0,1,1.52,1.09,3,3,0,0,1-.41,4.88,13.55,13.55,0,0,1-5.31,2.26A38.331,38.331,0,0,1,225,413a31.77,31.77,0,0,1-8.66-1.37A11.26,11.26,0,0,1,213,410c-2.11-1.58-2.14-3.77-.06-5.4a8.232,8.232,0,0,1,1.42-.88,1.015,1.015,0,1,1,.97,1.78,6.331,6.331,0,0,0-1.56,1.11.86.86,0,0,0,0,1.37,6.1,6.1,0,0,0,2.32,1.41,24.429,24.429,0,0,0,6.1,1.38,38.048,38.048,0,0,0,7.08.18,25.349,25.349,0,0,0,8.76-1.82,5,5,0,0,0,1.75-1.18.87.87,0,0,0,0-1.38,6.21,6.21,0,0,0-2.28-1.38,26.162,26.162,0,0,0-6.94-1.5.478.478,0,0,0-.44.27c-.8,1-1.59,2-2.4,3.07a1.06,1.06,0,0,1-1.9,0l-5.05-6.47a.73.73,0,0,0-.76-.35,39.32,39.32,0,0,0-10.73,2.75,14.31,14.31,0,0,0-5,3.3,5.1,5.1,0,0,0-1.35,2.51,4,4,0,0,0,1.07,3.4,14.19,14.19,0,0,0,5.75,3.84,39.17,39.17,0,0,0,10.62,2.57,55,55,0,0,0,11.18.17,38.371,38.371,0,0,0,13.71-3.41,12.6,12.6,0,0,0,4.08-2.93c1.83-2.11,1.78-4.24-.16-6.26a14.111,14.111,0,0,0-4-2.78,30.006,30.006,0,0,0-3.32-1.35,1.05,1.05,0,0,1-.81-.88,1.031,1.031,0,0,1,1.39-1.09,21.7,21.7,0,0,1,7.51,4,7.74,7.74,0,0,1,2.7,4.18,6.07,6.07,0,0,1-1.54,5.39,14.31,14.31,0,0,1-4.58,3.44,36.6,36.6,0,0,1-11.29,3.36,49.075,49.075,0,0,1-5.29.52.52.52,0,0,0-.38.09H224a.55.55,0,0,0-.39-.09,49.15,49.15,0,0,1-5.28-.52A36.52,36.52,0,0,1,207.09,417a13.89,13.89,0,0,1-5-3.91,8,8,0,0,1-1.31-3Zm38.81-24.26a13.6,13.6,0,0,0-.24-2.92,12.43,12.43,0,0,0-4.18-7.22,12.85,12.85,0,0,0-21.14,7.7,12,12,0,0,0,2.32,9.56c3.29,4.35,6.69,8.61,10,12.92.26.34.37.4.66,0q4.83-6.23,9.68-12.42a13.08,13.08,0,0,0,2.9-7.62Z" transform="translate(-99.91 -369.02)"/>
        <path id="Path_624" data-name="Path 624" d="M237.51,400.77a1,1,0,1,1,1-1A1,1,0,0,1,237.51,400.77Z" transform="translate(-99.91 -369.02)"/>
        <path id="Path_625" data-name="Path 625" d="M217.12,403.4a1,1,0,1,1,1,1A1,1,0,0,1,217.12,403.4Z" transform="translate(-99.91 -369.02)"/>
        <path id="Path_626" data-name="Path 626" d="M226.81,393.29a9.11,9.11,0,0,1-1.67-18.08,9.35,9.35,0,0,1,4,.16,1.021,1.021,0,1,1-.42,1.98,7.77,7.77,0,0,0-4.43.19,7.08,7.08,0,1,0,9.5,7.33,8.07,8.07,0,0,0-.19-2.45,1.35,1.35,0,0,1,0-1,.94.94,0,0,1,1-.55,1,1,0,0,1,.91.83,9.14,9.14,0,0,1-7.35,11.47C227.71,393.26,227.22,393.24,226.81,393.29Z" transform="translate(-99.91 -369.02)"/>
        <path id="Path_627" data-name="Path 627" d="M232.52,377.44a1,1,0,0,1,0,2,1.09,1.09,0,0,1-1-1A1,1,0,0,1,232.52,377.44Z" transform="translate(-99.91 -369.02)"/>
      </g>
    </g>
  </g>
</svg>
