<svg xmlns="http://www.w3.org/2000/svg" width="66" height="62" viewBox="0 0 66 62">
  <g id="Group_665" data-name="Group 665" transform="translate(-716 -931)">
    <rect id="Rectangle_281" data-name="Rectangle 281" width="66" height="62" transform="translate(716 931)" fill="none"/>
    <g id="Group_664" data-name="Group 664" transform="translate(3.594)">
      <circle id="Ellipse_122" data-name="Ellipse 122" cx="22.5" cy="22.5" r="22.5" transform="translate(727 934)" fill="#0ab3c5"/>
      <g id="Group_656" data-name="Group 656" transform="translate(476.32 934.033)">
        <path id="Path_620" data-name="Path 620" d="M364.64,422.32h-13c-.3,0-.53,0-.64.37a.68.68,0,0,1-.72.45h-6.44a.77.77,0,0,1-.84-.85V411c0-.58.32-.86.94-.86h6.19c.7,0,1,.28,1,1,0,.54.14.67.66.65h3.4c.68,0,.82-.15.82-.82V386.73a4,4,0,0,1,3.36-4.09,4.12,4.12,0,0,1,.7-.05h3.45c.47,0,.64-.08.62-.6-.05-1.14,0-2.29,0-3.44a4,4,0,0,1,4.08-4.08h9.67a4,4,0,0,1,4.09,4.07c0,1.22,0,2.43,0,3.65,0,.31.09.4.4.39H386a4,4,0,0,1,4,4v22.7a.9.9,0,0,0,.38.8,3.34,3.34,0,0,1-.53,5.57c-2.41,1.39-4.85,2.73-7.27,4.1l-4.06,2.28a1.79,1.79,0,0,1-1,.25Zm8.61-8.11h3.22a1.78,1.78,0,0,0,.78-.18l9.22-4.26a3.191,3.191,0,0,1,1.55-.42c.38,0,.43-.14.43-.47V386.83a2.46,2.46,0,0,0-2.63-2.63H360.27a2.47,2.47,0,0,0-2.65,2.66v22.4a.51.51,0,0,0,.14.49c.25-.28.5-.55.74-.83a1.14,1.14,0,0,1,.94-.4h10.79a3.61,3.61,0,0,1,3.42,2.47,3.74,3.74,0,0,1-.4,3.22Zm-8.78,6.49h12.76a1.57,1.57,0,0,0,.82-.21l8.11-4.57c1-.57,2-1.13,3-1.72a1.7,1.7,0,0,0,.84-1.76,1.77,1.77,0,0,0-1.5-1.46,2.25,2.25,0,0,0-1.27.24c-3.13,1.46-6.27,2.9-9.4,4.35a2.64,2.64,0,0,1-1.17.27H364.43c-1.13,0-1.11,0-1.14-1.12,0-.45.15-.51.54-.51h6.18a2.27,2.27,0,0,0,1.3-.35,2,2,0,0,0-1.23-3.7H359.94a.77.77,0,0,0-.61.26L356.72,413a1.12,1.12,0,0,1-.9.37h-4.2c-.42,0-.5.13-.49.51v6.28c0,.42.1.53.53.53Q358.05,420.69,364.47,420.7Zm-15-4.06v-4.4c0-.39-.12-.48-.49-.47h-4c-.3,0-.4.07-.4.39v9c0,.32.1.39.4.39h4c.37,0,.49-.08.49-.47.03-1.5.05-2.97.05-4.44ZM373,376.09h-4.71a2.45,2.45,0,0,0-2.59,2.57v2.73c0,1.21,0,1.2,1.22,1.2.34,0,.42-.12.41-.44v-3.49c0-.67.28-.95,1-.95h9.42c.68,0,1,.28,1,.95v2.68c0,1.28,0,1.27,1.27,1.24.3,0,.37-.1.37-.37v-3.5a2.46,2.46,0,0,0-2.64-2.62Zm0,6.5h3.64c.31,0,.46,0,.45-.4v-2.48c0-.29-.07-.38-.36-.38h-7.4c-.3,0-.37.1-.36.38v2.48c0,.31.07.41.39.4C370.58,382.57,371.79,382.59,373,382.59Z" transform="translate(-99.91 -369.02)"/>
        <path id="Path_621" data-name="Path 621" d="M373,406.91a9.71,9.71,0,1,1,6.888-2.816A9.73,9.73,0,0,1,373,406.91Zm8.14-9.72a8.11,8.11,0,1,0-8.15,8.1,8.11,8.11,0,0,0,8.15-8.1Z" transform="translate(-99.91 -369.02)"/>
        <path id="Path_622" data-name="Path 622" d="M373,402.85h-1.52a.79.79,0,0,1-.87-.88v-2c0-.33-.1-.4-.41-.39h-1.92c-.64,0-.92-.29-.92-.93v-3c0-.65.28-.93.92-.94s1.25,0,1.87,0c.35,0,.48-.07.46-.44v-1.93a.78.78,0,0,1,.87-.88h3.14a.78.78,0,0,1,.85.85v2c0,.29.1.37.38.37h2a.8.8,0,0,1,.89.91v3c0,.62-.3.91-.94.91h-1.88c-.31,0-.44.06-.43.41v1.92a.8.8,0,0,1-.9.91Zm.85-8.32v-.2c0-1.28,0-1.27-1.3-1.21-.27,0-.33.1-.33.35v1.88a.873.873,0,0,1-1,1h-1.07c-1.23,0-1.22,0-1.19,1.26,0,.28.08.38.37.37h2a.78.78,0,0,1,.86.84v1.17c0,1.28,0,1.27,1.27,1.24.3,0,.37-.12.36-.39v-1.87a.877.877,0,0,1,1-1h1.06c1.28,0,1.27,0,1.22-1.28,0-.26-.07-.35-.34-.35h-2.08a.77.77,0,0,1-.82-.82c-.03-.31-.02-.65-.02-.99Z" transform="translate(-99.91 -369.02)"/>
      </g>
    </g>
  </g>
</svg>
