<svg xmlns="http://www.w3.org/2000/svg" width="66" height="62" viewBox="0 0 66 62">
  <g id="Group_661" data-name="Group 661" transform="translate(-160 -931)">
    <rect id="Rectangle_279" data-name="Rectangle 279" width="66" height="62" transform="translate(160 931)" fill="none"/>
    <g id="Group_660" data-name="Group 660">
      <circle id="Ellipse_118" data-name="Ellipse 118" cx="22.5" cy="22.5" r="22.5" transform="translate(171 934)" fill="#0ab3c5"/>
      <g id="Group_659" data-name="Group 659" transform="translate(166.021 937.72)">
        <path id="Path_631" data-name="Path 631" d="M99.91,414.28c.37-.5.9-.47,1.44-.46.8,0,.69.06.69-.68V385.65a5.24,5.24,0,0,1,2.68-4.8,4.68,4.68,0,0,1,2.4-.66h5.25c.58,0,.93.32.93.81s-.36.8-.93.8h-4.88a3.66,3.66,0,0,0-3.83,3.85q0,13.8,0,27.6c0,.48.13.59.6.59h16.83a2.08,2.08,0,0,1,2.07,1,1.19,1.19,0,0,0,1.13.58h6.06a1.3,1.3,0,0,0,1.17-.64,2,2,0,0,1,1.93-1h17c.52,0,.64-.13.64-.65V385.69a3.68,3.68,0,0,0-4-3.95h-5.57a.81.81,0,0,1-.91-.65c-.12-.54.25-.95.86-.95h6.32a5.19,5.19,0,0,1,4.84,4.92v28.08c0,.47.09.64.6.63,1.49,0,1.53.05,1.55,1.52a6.75,6.75,0,0,1-.53,3.29,5.16,5.16,0,0,1-4.8,3.13H105.23a5.4,5.4,0,0,1-5.08-3.76,3.21,3.21,0,0,0-.26-.85Zm27.46,5.9H149a4,4,0,0,0,4.23-4.26c0-.38-.1-.48-.48-.48H133.43a.64.64,0,0,0-.62.31,2.88,2.88,0,0,1-2.56,1.31h-5.89a2.89,2.89,0,0,1-2.56-1.29.65.65,0,0,0-.61-.33H101.94c-.37,0-.43.13-.43.46a3.94,3.94,0,0,0,4.2,4.28Z" transform="translate(-99.91 -369.02)"/>
        <path id="Path_632" data-name="Path 632" d="M127.35,412H106.71c-1,0-1.23-.21-1.23-1.21v-3.22c0-.59.29-.93.78-.95s.82.34.83,1,0,1.51,0,2.26c0,.42.11.54.53.53H118a2.294,2.294,0,0,1,.37,0c.31,0,.41-.1.4-.4v-2.63a6.61,6.61,0,0,1,2.1-5.08c.8-.79.8-.8.35-1.82a6.679,6.679,0,1,1,12.321-5.161,1.191,1.191,0,0,1,.079.2.83.83,0,0,1-.45,1.15.81.81,0,0,1-1.06-.55,5.13,5.13,0,0,0-1.65-2.27,5.165,5.165,0,1,0,1.62,5.78c.07-.18.13-.37.21-.55a.77.77,0,0,1,1-.46.76.76,0,0,1,.51.94,3.79,3.79,0,0,1-.56,1.43c-.28.41-.16.65.16.94a7.66,7.66,0,0,1,1.92,2.48,6.49,6.49,0,0,1,.6,2.64v3c0,.3.09.4.4.4h10.93c.28,0,.4-.09.37-.37a.41.41,0,0,1,0-.11V385.85c0-.47-.17-.57-.6-.56h-5.41c-.66,0-1-.31-1-.83s.37-.77,1-.78h5.63a1.81,1.81,0,0,1,2,2v25.3c0,.85-.26,1.1-1.13,1.1Zm0-1.63h6.49c.4,0,.52-.1.5-.51v-2.14a5.7,5.7,0,0,0-2.17-4.84c-.2-.16-.3-.17-.48,0a5.35,5.35,0,0,1-1.48.95,6.6,6.6,0,0,1-7.09-.87c-.12-.09-.22-.39-.47-.16a5.91,5.91,0,0,0-2.17,3.46c-.17,1.21,0,2.43-.1,3.64,0,.39.12.47.49.47Z" transform="translate(-99.91 -369.02)"/>
        <path id="Path_633" data-name="Path 633" d="M126.94,389.42c-2.77,0-5.54-.06-8.31,0a3.63,3.63,0,0,1-3.74-3.73c.08-2.21,0-4.43,0-6.64,0-.68.43-1.06,1-.91s.62.47.61.93v6.54a1.93,1.93,0,0,0,2.18,2.17h16.5a1.89,1.89,0,0,0,2.15-2.12q0-5.82,0-11.63a1.89,1.89,0,0,0-2.15-2.12H118.69a1.93,1.93,0,0,0-2.17,2.17c0,.45,0,.9,0,1.34a.83.83,0,0,1-.82.87.79.79,0,0,1-.78-.85,10.46,10.46,0,0,1,.1-2.5,3.39,3.39,0,0,1,3.29-2.64h17.26a3.43,3.43,0,0,1,3.43,3.52v12.05a3.45,3.45,0,0,1-3.59,3.52C132.58,389.43,129.76,389.42,126.94,389.42Z" transform="translate(-99.91 -369.02)"/>
        <path id="Path_634" data-name="Path 634" d="M105.48,394.61v-9a1.81,1.81,0,0,1,2-2h4.83c.66,0,1,.31,1,.83s-.38.78-1,.78H107.7c-.47,0-.6.15-.6.62v17.94c0,.67-.3,1.05-.81,1.05s-.8-.38-.8-1.05Z" transform="translate(-99.91 -369.02)"/>
        <path id="Path_635" data-name="Path 635" d="M122.72,379.82v-2.79a2.06,2.06,0,0,1,3.2-1.83c1.59.92,3.18,1.85,4.75,2.79a2.07,2.07,0,0,1,0,3.73c-1.59,1-3.19,1.91-4.8,2.82a2.05,2.05,0,0,1-3.17-1.82C122.71,381.75,122.72,380.79,122.72,379.82Zm1.62,0v2.68q0,1,.9.54l4.56-2.68c.54-.32.54-.69,0-1q-2.3-1.37-4.61-2.71c-.53-.31-.85-.12-.86.5Z" transform="translate(-99.91 -369.02)"/>
      </g>
    </g>
  </g>
</svg>
